<mxfile host="app.diagrams.net" agent="Mozilla/5.0 (Windows NT 10.0; Win64; x64) AppleWebKit/537.36 (KHTML, like Gecko) Chrome/128.0.0.0 Safari/537.36" version="24.7.7">
  <diagram name="Page-1" id="B8ujZHRb-WKnTlfwPYyH">
    <mxGraphModel dx="1834" dy="830" grid="0" gridSize="10" guides="1" tooltips="1" connect="1" arrows="1" fold="1" page="0" pageScale="1" pageWidth="827" pageHeight="1169" math="0" shadow="0">
      <root>
        <mxCell id="0" />
        <mxCell id="1" parent="0" />
        <mxCell id="A81PW8SZgX-fbYe2Bi9F-1" value="&lt;font style=&quot;font-size: 14px;&quot;&gt;customer&lt;/font&gt;" style="rounded=0;whiteSpace=wrap;html=1;" vertex="1" parent="1">
          <mxGeometry x="-294" y="254" width="120" height="60" as="geometry" />
        </mxCell>
        <mxCell id="A81PW8SZgX-fbYe2Bi9F-2" value="&lt;font style=&quot;font-size: 14px;&quot;&gt;salesperson&lt;/font&gt;" style="rounded=0;whiteSpace=wrap;html=1;" vertex="1" parent="1">
          <mxGeometry x="-34" y="246" width="120" height="60" as="geometry" />
        </mxCell>
        <mxCell id="A81PW8SZgX-fbYe2Bi9F-3" value="&lt;font style=&quot;font-size: 14px;&quot;&gt;customer record&lt;/font&gt;" style="rounded=0;whiteSpace=wrap;html=1;" vertex="1" parent="1">
          <mxGeometry x="187" y="251" width="120" height="60" as="geometry" />
        </mxCell>
        <mxCell id="A81PW8SZgX-fbYe2Bi9F-4" value="&lt;font style=&quot;font-size: 14px;&quot;&gt;stock&lt;/font&gt;" style="rounded=0;whiteSpace=wrap;html=1;" vertex="1" parent="1">
          <mxGeometry x="418" y="251" width="120" height="60" as="geometry" />
        </mxCell>
        <mxCell id="A81PW8SZgX-fbYe2Bi9F-5" value="&lt;font style=&quot;font-size: 14px;&quot;&gt;manager&lt;/font&gt;" style="rounded=0;whiteSpace=wrap;html=1;" vertex="1" parent="1">
          <mxGeometry x="649" y="254" width="120" height="60" as="geometry" />
        </mxCell>
        <mxCell id="A81PW8SZgX-fbYe2Bi9F-6" value="" style="endArrow=none;dashed=1;html=1;rounded=0;fontSize=12;startSize=8;endSize=8;curved=1;entryX=0.5;entryY=1;entryDx=0;entryDy=0;" edge="1" parent="1" source="A81PW8SZgX-fbYe2Bi9F-12" target="A81PW8SZgX-fbYe2Bi9F-1">
          <mxGeometry width="50" height="50" relative="1" as="geometry">
            <mxPoint x="-231" y="617" as="sourcePoint" />
            <mxPoint x="225" y="475" as="targetPoint" />
          </mxGeometry>
        </mxCell>
        <mxCell id="A81PW8SZgX-fbYe2Bi9F-7" value="" style="endArrow=none;dashed=1;html=1;rounded=0;fontSize=12;startSize=8;endSize=8;curved=1;entryX=0.442;entryY=0.933;entryDx=0;entryDy=0;entryPerimeter=0;" edge="1" parent="1" source="A81PW8SZgX-fbYe2Bi9F-16" target="A81PW8SZgX-fbYe2Bi9F-2">
          <mxGeometry width="50" height="50" relative="1" as="geometry">
            <mxPoint x="19" y="610" as="sourcePoint" />
            <mxPoint x="225" y="475" as="targetPoint" />
            <Array as="points">
              <mxPoint x="19" y="335" />
            </Array>
          </mxGeometry>
        </mxCell>
        <mxCell id="A81PW8SZgX-fbYe2Bi9F-8" value="" style="endArrow=none;dashed=1;html=1;rounded=0;fontSize=12;startSize=8;endSize=8;curved=1;" edge="1" parent="1" source="A81PW8SZgX-fbYe2Bi9F-15">
          <mxGeometry width="50" height="50" relative="1" as="geometry">
            <mxPoint x="246" y="596" as="sourcePoint" />
            <mxPoint x="243" y="311" as="targetPoint" />
          </mxGeometry>
        </mxCell>
        <mxCell id="A81PW8SZgX-fbYe2Bi9F-9" value="" style="endArrow=none;dashed=1;html=1;rounded=0;fontSize=12;startSize=8;endSize=8;curved=1;" edge="1" parent="1" source="A81PW8SZgX-fbYe2Bi9F-14">
          <mxGeometry width="50" height="50" relative="1" as="geometry">
            <mxPoint x="477" y="593" as="sourcePoint" />
            <mxPoint x="477" y="309" as="targetPoint" />
          </mxGeometry>
        </mxCell>
        <mxCell id="A81PW8SZgX-fbYe2Bi9F-10" value="" style="endArrow=none;dashed=1;html=1;rounded=0;fontSize=12;startSize=8;endSize=8;curved=1;" edge="1" parent="1" source="A81PW8SZgX-fbYe2Bi9F-20">
          <mxGeometry width="50" height="50" relative="1" as="geometry">
            <mxPoint x="707" y="572" as="sourcePoint" />
            <mxPoint x="707" y="318" as="targetPoint" />
          </mxGeometry>
        </mxCell>
        <mxCell id="A81PW8SZgX-fbYe2Bi9F-13" value="" style="endArrow=none;dashed=1;html=1;rounded=0;fontSize=12;startSize=8;endSize=8;curved=1;entryX=0.5;entryY=1;entryDx=0;entryDy=0;" edge="1" parent="1" target="A81PW8SZgX-fbYe2Bi9F-12">
          <mxGeometry width="50" height="50" relative="1" as="geometry">
            <mxPoint x="-236" y="789" as="sourcePoint" />
            <mxPoint x="-234" y="311" as="targetPoint" />
          </mxGeometry>
        </mxCell>
        <mxCell id="A81PW8SZgX-fbYe2Bi9F-12" value="" style="rounded=0;whiteSpace=wrap;html=1;" vertex="1" parent="1">
          <mxGeometry x="-239" y="348" width="10" height="391" as="geometry" />
        </mxCell>
        <mxCell id="A81PW8SZgX-fbYe2Bi9F-17" value="" style="endArrow=none;dashed=1;html=1;rounded=0;fontSize=12;startSize=8;endSize=8;curved=1;entryX=0.442;entryY=0.933;entryDx=0;entryDy=0;entryPerimeter=0;" edge="1" parent="1" target="A81PW8SZgX-fbYe2Bi9F-16">
          <mxGeometry width="50" height="50" relative="1" as="geometry">
            <mxPoint x="18" y="789" as="sourcePoint" />
            <mxPoint x="19" y="307" as="targetPoint" />
          </mxGeometry>
        </mxCell>
        <mxCell id="A81PW8SZgX-fbYe2Bi9F-16" value="" style="rounded=0;whiteSpace=wrap;html=1;" vertex="1" parent="1">
          <mxGeometry x="14" y="340" width="10" height="247" as="geometry" />
        </mxCell>
        <mxCell id="A81PW8SZgX-fbYe2Bi9F-18" value="" style="endArrow=none;dashed=1;html=1;rounded=0;fontSize=12;startSize=8;endSize=8;curved=1;" edge="1" parent="1" target="A81PW8SZgX-fbYe2Bi9F-15">
          <mxGeometry width="50" height="50" relative="1" as="geometry">
            <mxPoint x="244" y="782" as="sourcePoint" />
            <mxPoint x="243" y="311" as="targetPoint" />
          </mxGeometry>
        </mxCell>
        <mxCell id="A81PW8SZgX-fbYe2Bi9F-15" value="" style="rounded=0;whiteSpace=wrap;html=1;" vertex="1" parent="1">
          <mxGeometry x="239" y="354" width="10" height="118" as="geometry" />
        </mxCell>
        <mxCell id="A81PW8SZgX-fbYe2Bi9F-19" value="" style="endArrow=none;dashed=1;html=1;rounded=0;fontSize=12;startSize=8;endSize=8;curved=1;" edge="1" parent="1" target="A81PW8SZgX-fbYe2Bi9F-14">
          <mxGeometry width="50" height="50" relative="1" as="geometry">
            <mxPoint x="477" y="777" as="sourcePoint" />
            <mxPoint x="477" y="309" as="targetPoint" />
          </mxGeometry>
        </mxCell>
        <mxCell id="A81PW8SZgX-fbYe2Bi9F-14" value="" style="rounded=0;whiteSpace=wrap;html=1;" vertex="1" parent="1">
          <mxGeometry x="473" y="476" width="10" height="106" as="geometry" />
        </mxCell>
        <mxCell id="A81PW8SZgX-fbYe2Bi9F-21" value="" style="endArrow=none;dashed=1;html=1;rounded=0;fontSize=12;startSize=8;endSize=8;curved=1;" edge="1" parent="1" target="A81PW8SZgX-fbYe2Bi9F-20">
          <mxGeometry width="50" height="50" relative="1" as="geometry">
            <mxPoint x="711" y="766" as="sourcePoint" />
            <mxPoint x="707" y="318" as="targetPoint" />
          </mxGeometry>
        </mxCell>
        <mxCell id="A81PW8SZgX-fbYe2Bi9F-20" value="" style="rounded=0;whiteSpace=wrap;html=1;" vertex="1" parent="1">
          <mxGeometry x="704" y="595" width="10" height="136" as="geometry" />
        </mxCell>
        <mxCell id="A81PW8SZgX-fbYe2Bi9F-22" value="" style="endArrow=classic;html=1;rounded=0;fontSize=12;startSize=8;endSize=8;curved=1;exitX=0.8;exitY=0.069;exitDx=0;exitDy=0;exitPerimeter=0;entryX=0;entryY=0.143;entryDx=0;entryDy=0;entryPerimeter=0;" edge="1" parent="1" source="A81PW8SZgX-fbYe2Bi9F-12" target="A81PW8SZgX-fbYe2Bi9F-16">
          <mxGeometry width="50" height="50" relative="1" as="geometry">
            <mxPoint x="175" y="525" as="sourcePoint" />
            <mxPoint x="225" y="475" as="targetPoint" />
          </mxGeometry>
        </mxCell>
        <mxCell id="A81PW8SZgX-fbYe2Bi9F-29" value="" style="endArrow=classic;html=1;rounded=0;fontSize=12;startSize=8;endSize=8;curved=1;exitX=1.1;exitY=0.223;exitDx=0;exitDy=0;exitPerimeter=0;" edge="1" parent="1" source="A81PW8SZgX-fbYe2Bi9F-16">
          <mxGeometry width="50" height="50" relative="1" as="geometry">
            <mxPoint x="175" y="525" as="sourcePoint" />
            <mxPoint x="236" y="395" as="targetPoint" />
          </mxGeometry>
        </mxCell>
        <mxCell id="A81PW8SZgX-fbYe2Bi9F-30" value="" style="endArrow=classic;html=1;rounded=0;fontSize=12;startSize=8;endSize=8;curved=1;exitX=1;exitY=0.644;exitDx=0;exitDy=0;exitPerimeter=0;" edge="1" parent="1" source="A81PW8SZgX-fbYe2Bi9F-16">
          <mxGeometry width="50" height="50" relative="1" as="geometry">
            <mxPoint x="175" y="525" as="sourcePoint" />
            <mxPoint x="470" y="499" as="targetPoint" />
          </mxGeometry>
        </mxCell>
        <mxCell id="A81PW8SZgX-fbYe2Bi9F-31" value="" style="endArrow=classic;html=1;rounded=0;fontSize=12;startSize=8;endSize=8;curved=1;exitX=1.1;exitY=0.858;exitDx=0;exitDy=0;exitPerimeter=0;" edge="1" parent="1" source="A81PW8SZgX-fbYe2Bi9F-16">
          <mxGeometry width="50" height="50" relative="1" as="geometry">
            <mxPoint x="175" y="525" as="sourcePoint" />
            <mxPoint x="468" y="552" as="targetPoint" />
          </mxGeometry>
        </mxCell>
        <mxCell id="A81PW8SZgX-fbYe2Bi9F-32" value="" style="endArrow=classic;html=1;rounded=0;fontSize=12;startSize=8;endSize=8;curved=1;entryX=0.2;entryY=0.301;entryDx=0;entryDy=0;entryPerimeter=0;exitX=1;exitY=0.75;exitDx=0;exitDy=0;" edge="1" parent="1" source="A81PW8SZgX-fbYe2Bi9F-12" target="A81PW8SZgX-fbYe2Bi9F-20">
          <mxGeometry width="50" height="50" relative="1" as="geometry">
            <mxPoint x="175" y="525" as="sourcePoint" />
            <mxPoint x="225" y="475" as="targetPoint" />
          </mxGeometry>
        </mxCell>
        <mxCell id="A81PW8SZgX-fbYe2Bi9F-34" value="place order" style="text;html=1;align=center;verticalAlign=middle;whiteSpace=wrap;rounded=0;fontSize=16;" vertex="1" parent="1">
          <mxGeometry x="-156" y="342" width="96" height="30" as="geometry" />
        </mxCell>
        <mxCell id="A81PW8SZgX-fbYe2Bi9F-35" value="reject order" style="text;html=1;align=center;verticalAlign=middle;whiteSpace=wrap;rounded=0;fontSize=16;" vertex="1" parent="1">
          <mxGeometry x="-158" y="400" width="96" height="30" as="geometry" />
        </mxCell>
        <mxCell id="A81PW8SZgX-fbYe2Bi9F-36" value="Apology message" style="text;html=1;align=center;verticalAlign=middle;whiteSpace=wrap;rounded=0;fontSize=16;" vertex="1" parent="1">
          <mxGeometry x="-178" y="472" width="140" height="30" as="geometry" />
        </mxCell>
        <mxCell id="A81PW8SZgX-fbYe2Bi9F-37" value="confirm order" style="text;html=1;align=center;verticalAlign=middle;whiteSpace=wrap;rounded=0;fontSize=16;" vertex="1" parent="1">
          <mxGeometry x="-165" y="541" width="110" height="30" as="geometry" />
        </mxCell>
        <mxCell id="A81PW8SZgX-fbYe2Bi9F-38" value="*finds" style="text;html=1;align=center;verticalAlign=middle;whiteSpace=wrap;rounded=0;fontSize=16;" vertex="1" parent="1">
          <mxGeometry x="86" y="364" width="60" height="30" as="geometry" />
        </mxCell>
        <mxCell id="A81PW8SZgX-fbYe2Bi9F-39" value="*findstock" style="text;html=1;align=center;verticalAlign=middle;whiteSpace=wrap;rounded=0;fontSize=16;" vertex="1" parent="1">
          <mxGeometry x="88" y="466" width="60" height="30" as="geometry" />
        </mxCell>
        <mxCell id="A81PW8SZgX-fbYe2Bi9F-40" value="&lt;span style=&quot;color: rgb(0, 0, 0); font-family: Helvetica; font-size: 16px; font-style: normal; font-variant-ligatures: normal; font-variant-caps: normal; font-weight: 400; letter-spacing: normal; orphans: 2; text-align: center; text-indent: 0px; text-transform: none; widows: 2; word-spacing: 0px; -webkit-text-stroke-width: 0px; white-space: normal; background-color: rgb(255, 255, 255); text-decoration-thickness: initial; text-decoration-style: initial; text-decoration-color: initial; display: inline !important; float: none;&quot;&gt;update&lt;/span&gt;" style="text;whiteSpace=wrap;html=1;" vertex="1" parent="1">
          <mxGeometry x="90" y="525" width="122" height="41" as="geometry" />
        </mxCell>
        <mxCell id="A81PW8SZgX-fbYe2Bi9F-41" value="place query" style="text;html=1;align=center;verticalAlign=middle;whiteSpace=wrap;rounded=0;fontSize=16;" vertex="1" parent="1">
          <mxGeometry x="83" y="611" width="122" height="30" as="geometry" />
        </mxCell>
        <mxCell id="A81PW8SZgX-fbYe2Bi9F-43" value="answer query" style="text;html=1;align=center;verticalAlign=middle;whiteSpace=wrap;rounded=0;fontSize=16;" vertex="1" parent="1">
          <mxGeometry x="83" y="674" width="122" height="30" as="geometry" />
        </mxCell>
        <mxCell id="A81PW8SZgX-fbYe2Bi9F-44" value="" style="endArrow=open;endSize=12;dashed=1;html=1;rounded=0;fontSize=12;curved=1;entryX=1;entryY=0.212;entryDx=0;entryDy=0;entryPerimeter=0;" edge="1" parent="1" target="A81PW8SZgX-fbYe2Bi9F-12">
          <mxGeometry width="160" relative="1" as="geometry">
            <mxPoint x="9" y="430" as="sourcePoint" />
            <mxPoint x="-227" y="426" as="targetPoint" />
          </mxGeometry>
        </mxCell>
        <mxCell id="A81PW8SZgX-fbYe2Bi9F-45" value="" style="endArrow=open;endSize=12;dashed=1;html=1;rounded=0;fontSize=12;curved=1;entryX=1;entryY=0.212;entryDx=0;entryDy=0;entryPerimeter=0;" edge="1" parent="1">
          <mxGeometry width="160" relative="1" as="geometry">
            <mxPoint x="14" y="569" as="sourcePoint" />
            <mxPoint x="-229" y="569" as="targetPoint" />
          </mxGeometry>
        </mxCell>
        <mxCell id="A81PW8SZgX-fbYe2Bi9F-46" value="" style="endArrow=open;endSize=12;dashed=1;html=1;rounded=0;fontSize=12;curved=1;entryX=1.2;entryY=0.399;entryDx=0;entryDy=0;entryPerimeter=0;" edge="1" parent="1" target="A81PW8SZgX-fbYe2Bi9F-12">
          <mxGeometry width="160" relative="1" as="geometry">
            <mxPoint x="13" y="504" as="sourcePoint" />
            <mxPoint x="-229" y="510" as="targetPoint" />
            <Array as="points">
              <mxPoint x="-85" y="505" />
            </Array>
          </mxGeometry>
        </mxCell>
        <mxCell id="A81PW8SZgX-fbYe2Bi9F-47" value="" style="endArrow=open;endSize=12;dashed=1;html=1;rounded=0;fontSize=12;curved=1;entryX=1;entryY=0.212;entryDx=0;entryDy=0;entryPerimeter=0;" edge="1" parent="1">
          <mxGeometry width="160" relative="1" as="geometry">
            <mxPoint x="702" y="701" as="sourcePoint" />
            <mxPoint x="-229" y="704" as="targetPoint" />
          </mxGeometry>
        </mxCell>
      </root>
    </mxGraphModel>
  </diagram>
</mxfile>
